<svg xmlns="http://www.w3.org/2000/svg" viewBox="0 0 512 512">
  <defs>
    <linearGradient id="bgGradient" x1="0%" y1="0%" x2="100%" y2="100%">
      <stop offset="0%" style="stop-color:#1A1A1A;stop-opacity:1" />
      <stop offset="100%" style="stop-color:#000000;stop-opacity:1" />
    </linearGradient>
    <radialGradient id="glowGradient" cx="50%" cy="50%" r="50%">
      <stop offset="0%" style="stop-color:#D4AF37;stop-opacity:0.3" />
      <stop offset="100%" style="stop-color:#D4AF37;stop-opacity:0" />
    </radialGradient>
  </defs>
  
  <!-- Background -->
  <rect width="512" height="512" fill="url(#bgGradient)" rx="120"/>
  
  <!-- Glow effect -->
  <circle cx="256" cy="256" r="200" fill="url(#glowGradient)"/>
  
  <!-- Golden sparkles -->
  <circle cx="120" cy="120" r="4" fill="#D4AF37" opacity="0.8"/>
  <circle cx="390" cy="140" r="3" fill="#D4AF37" opacity="0.6"/>
  <circle cx="150" cy="380" r="5" fill="#D4AF37" opacity="0.7"/>
  <circle cx="380" cy="360" r="4" fill="#D4AF37" opacity="0.8"/>
  <circle cx="256" cy="100" r="3" fill="#D4AF37" opacity="0.9"/>
  
  <!-- Heart icon (positive rating) -->
  <path d="M256 400 C 200 360, 140 320, 140 240 C 140 180, 180 150, 220 150 C 240 150, 256 160, 256 160 C 256 160, 272 150, 292 150 C 332 150, 372 180, 372 240 C 372 320, 312 360, 256 400 Z" 
        fill="#D4AF37" 
        stroke="#EFD9A7" 
        stroke-width="4"/>
  
  <!-- Shine effect on heart -->
  <ellipse cx="220" cy="200" rx="20" ry="30" fill="#FFF" opacity="0.3"/>
  
  <!-- Plus symbol -->
  <g transform="translate(340, 340)">
    <rect x="-6" y="-30" width="12" height="60" fill="#D4AF37" rx="6"/>
    <rect x="-30" y="-6" width="60" height="12" fill="#D4AF37" rx="6"/>
  </g>
</svg>
